<svg width="457" height="172" viewBox="0 0 457 172" fill="none" xmlns="http://www.w3.org/2000/svg">
<ellipse cx="389.297" cy="116.646" rx="10" ry="11.0896" transform="rotate(30.3453 389.297 116.646)" fill="white"/>
<ellipse cx="73.7869" cy="118.763" rx="10" ry="11.1893" transform="rotate(41.4677 73.7869 118.763)" fill="white"/>
<path d="M26.5 15.6539C27.1667 9.82061 30.5 -1.44606 38.5 0.153942H77.5L55.5 132.654H88.5L93.5 103.154H135L124.5 171.654H0L26.5 15.6539ZM290 171.654H237.5V136.154H195L182.5 171.654H131.5L191.5 15.6539C192.333 10.4873 196.8 0.153942 208 0.153942H284.5L290 171.654ZM450.5 41.1539H371.5L356.5 130.154H403.5L408.5 104.154H379L382.5 80.1539C382.5 75.6539 385.7 66.3539 398.5 65.1539C397.7 65.9539 437.167 65.4873 457 65.1539L439 171.654H333L306 140.154L321 52.6539C322.167 45.8206 326.1 30.9539 332.5 26.1539L356.5 5.65394C358.833 3.82049 366.2 0.153942 377 0.153942H457L450.5 41.1539ZM228.644 37.4996L228.527 37.8375L206.027 103.338L205.8 104H239.5V37.4996H228.644Z" fill="white"/>
<ellipse cx="227.046" cy="79.2712" rx="9" ry="10.8016" transform="rotate(47.6364 227.046 79.2712)" fill="white"/>
</svg>
