<svg width="646" height="434" viewBox="0 0 646 434" fill="none" xmlns="http://www.w3.org/2000/svg">
<path d="M291.935 119.888L322.181 150.4C322.938 151.164 324.165 151.164 324.922 150.4L355.181 119.876C355.938 119.112 355.938 117.874 355.181 117.11L324.935 86.5986C324.178 85.8349 322.95 85.8349 322.193 86.5986L291.935 117.123C291.178 117.887 291.178 119.125 291.935 119.888Z" fill="white"/>
<path d="M383.497 0.533321C383.497 0.238776 383.26 0 382.968 0H343.322C343.03 0 342.793 0.238776 342.793 0.533321V16.8556L342.705 16.7671V74.7868C342.705 74.9282 342.761 75.0639 342.86 75.1639L378.532 111.15C382.264 114.914 382.264 121.017 378.532 124.781L342.705 160.923L339.919 163.745C338.672 165.008 338.674 167.038 339.923 168.298L364.223 192.811C365.491 194.091 367.559 194.091 368.827 192.811L426.234 134.9C435.505 125.547 435.505 110.383 426.234 101.03L383.652 58.074C383.553 57.974 383.497 57.8383 383.497 57.6969V0.533321Z" fill="white"/>
<path d="M304.375 160.923L323.54 180.331L351.464 208.507C351.797 208.843 351.561 209.417 351.09 209.417H294.714L220.847 134.9C211.575 125.547 211.575 110.383 220.847 101.03L303.473 17.6775C303.806 17.3415 304.375 17.5795 304.375 18.0546V74.7868C304.375 74.9282 304.319 75.0639 304.22 75.1639L268.548 111.15C264.817 114.914 264.817 121.017 268.548 124.781L304.375 160.923Z" fill="white"/>
<path fill-rule="evenodd" clip-rule="evenodd" d="M14.5092 239.642H81.0808C89.094 239.642 95.59 246.162 95.59 254.204V330.728C95.59 338.771 89.094 345.29 81.0808 345.29H14.5092C6.49599 345.29 0 338.771 0 330.728V254.204C0 246.162 6.49599 239.642 14.5092 239.642ZM28.1649 263.678C25.8081 263.678 23.8975 265.596 23.8975 267.961V316.847C23.8975 319.212 25.8081 321.13 28.1649 321.13H67.4251C69.7819 321.13 71.6925 319.212 71.6925 316.847V267.961C71.6925 265.596 69.7819 263.678 67.4251 263.678H28.1649Z" fill="white"/>
<path d="M38.9029 283.671C38.9029 283.435 39.0939 283.243 39.3296 283.243H56.8161C57.0517 283.243 57.2428 283.435 57.2428 283.671V301.261C57.2428 301.498 57.0517 301.689 56.8161 301.689H39.3296C39.0939 301.689 38.9029 301.498 38.9029 301.261V283.671Z" fill="white"/>
<path d="M132.429 239.642H105.005C104.648 239.642 104.449 240.055 104.67 240.336L139.883 285.158C145.73 292.601 156.992 292.542 162.763 285.039L197.142 240.332C197.358 240.051 197.158 239.642 196.804 239.642H169.375C169.239 239.642 169.11 239.708 169.03 239.819L151.399 264.208L132.767 239.81C132.687 239.704 132.561 239.642 132.429 239.642Z" fill="white"/>
<path d="M132.764 345.216H105.34C104.984 345.216 104.785 344.804 105.005 344.523L140.219 299.701C146.066 292.258 157.328 292.316 163.098 299.82L197.477 344.526C197.694 344.808 197.494 345.216 197.139 345.216H169.711C169.574 345.216 169.446 345.151 169.366 345.04L151.734 320.651L133.103 345.049C133.022 345.154 132.897 345.216 132.764 345.216Z" fill="white"/>
<path d="M234.915 239.642H207.286C206.957 239.642 206.752 240.001 206.918 240.287L241.325 299.38C246.956 309.052 260.905 308.987 266.446 299.263L300.06 240.283C300.223 239.998 300.018 239.642 299.69 239.642H272.06C271.905 239.642 271.762 239.727 271.687 239.862L253.986 271.787L235.283 239.854C235.206 239.723 235.066 239.642 234.915 239.642Z" fill="white"/>
<path d="M244.376 316.065C244.376 315.828 244.567 315.637 244.803 315.637H261.948C262.184 315.637 262.375 315.828 262.375 316.065V344.788C262.375 345.025 262.184 345.216 261.948 345.216H244.803C244.567 345.216 244.376 345.025 244.376 344.788V316.065Z" fill="white"/>
<path d="M343.1 283.114H361.425V301.548H343.1V283.114Z" fill="white"/>
<path d="M388.557 240.285V263.705C388.557 263.941 388.366 264.133 388.131 264.133H337.416C335.06 264.133 333.149 266.05 333.149 268.416V316.871C333.149 319.237 335.06 321.154 337.416 321.154H367.133C369.49 321.154 371.4 319.237 371.4 316.871V284.886C371.4 284.649 371.591 284.457 371.827 284.457H395.162C395.398 284.457 395.589 284.649 395.589 284.886V330.869C395.589 338.911 389.093 345.43 381.08 345.43H323.47C315.456 345.43 308.96 338.911 308.96 330.869V254.418C308.96 246.376 315.456 239.857 323.47 239.857H388.131C388.366 239.857 388.557 240.048 388.557 240.285Z" fill="white"/>
<path d="M460.24 283.542C460.24 283.306 460.431 283.114 460.667 283.114H493.708C493.944 283.114 494.135 283.306 494.135 283.542V301.119C494.135 301.356 493.944 301.548 493.708 301.548H460.667C460.431 301.548 460.24 301.356 460.24 301.119V283.542Z" fill="white"/>
<path d="M494.25 240.071V263.49C494.25 263.727 494.059 263.919 493.824 263.919H443.206C440.849 263.919 438.939 265.836 438.939 268.202V316.657C438.939 319.022 440.849 320.94 443.206 320.94H493.824C494.059 320.94 494.25 321.132 494.25 321.368V344.788C494.25 345.025 494.059 345.216 493.824 345.216H429.786C421.803 345.216 415.319 338.744 415.277 330.732L414.87 254.282C414.827 246.209 421.336 239.642 429.379 239.642H493.824C494.059 239.642 494.25 239.834 494.25 240.071Z" fill="white"/>
<path d="M577.621 344.788C577.621 345.025 577.812 345.216 578.048 345.216H600.211C600.447 345.216 600.638 345.025 600.638 344.788V254.204C600.638 246.162 594.142 239.642 586.129 239.642H528.519C520.505 239.642 514.009 246.162 514.009 254.204V344.788C514.009 345.025 514.201 345.216 514.436 345.216H536.6C536.836 345.216 537.027 345.025 537.027 344.788V269.798C537.027 267.433 538.937 265.515 541.294 265.515H573.353C575.71 265.515 577.621 267.433 577.621 269.798V344.788Z" fill="white"/>
<path d="M619.841 240.285C619.841 240.048 620.032 239.857 620.268 239.857H645.573C645.809 239.857 646 240.048 646 240.285V345.002C646 345.239 645.809 345.43 645.573 345.43H620.268C620.032 345.43 619.841 345.239 619.841 345.002V240.285Z" fill="white"/>
<path fill-rule="evenodd" clip-rule="evenodd" d="M646 360.543H466.676V434H646V360.543ZM477.625 374.704H497.516V391.513H509.742V403.955H497.516V420.036H482.795V379.668C482.158 377.749 481.633 376.671 477.625 374.704ZM506.519 374.704H526.41V420.036H511.689V379.668C510.691 376.961 509.374 375.936 506.519 374.704ZM550.194 374.704H531.58C533.899 375.451 535.121 376.118 536.217 377.648C536.592 378.173 536.751 378.816 536.751 379.461V398.599C536.751 403.527 538.407 408.311 541.453 412.185L541.735 412.543C550.615 423.836 567.837 423.513 576.287 411.895C578.977 408.197 580.426 403.742 580.426 399.17V374.771H563.637C565.604 375.17 566.529 375.575 566.922 377.55V398.698C566.922 399.723 566.732 400.739 566.36 401.694C563.736 408.45 554.306 408.813 551.169 402.279L551.023 401.977C550.477 400.839 550.194 399.594 550.194 398.333V374.704ZM586.813 374.771C589.882 375.926 590.913 377.055 591.923 379.668V388.536H600.743V385.888H616.513C617.25 385.888 617.964 386.146 618.531 386.616L618.641 386.706C620.195 387.993 620.095 390.404 618.442 391.559C617.929 391.917 617.318 392.109 616.692 392.109H600.743L591.923 403.359H617.653L619.539 406.271L617.653 409.712H591.923V420.764H619.575C621.7 420.764 623.791 420.175 625.606 419.071C633.426 414.312 632.902 402.755 624.649 398.793C633.115 393.526 632.469 381.006 623.505 376.638L622.334 376.067C620.495 375.17 618.475 374.707 616.429 374.711L586.813 374.771Z" fill="white"/>
</svg>
