<svg width="877" height="387" viewBox="0 0 877 387" fill="none" xmlns="http://www.w3.org/2000/svg">
<path d="M0.00174429 7.46431V197.742C0.00174429 228.651 25.034 253.708 55.9129 253.708L238.556 253.711C242.674 253.711 246.011 250.371 246.011 246.249V197.742C246.011 193.621 242.674 190.28 238.556 190.28H159.641C157.664 190.28 155.768 191.066 154.37 192.466L112.861 234.015C107.424 239.457 100.049 242.515 92.3601 242.515C76.348 242.515 63.3677 229.522 63.3677 213.494V7.46431C63.3677 3.34314 60.0302 0.00225473 55.913 0.00225473H7.45647C3.3393 0.00225473 0.00174429 3.34314 0.00174429 7.46431Z" fill="white"/>
<path fill-rule="evenodd" clip-rule="evenodd" d="M339.409 253.778H290.909C286.788 253.778 283.448 250.437 283.448 246.316V56.042C283.448 25.1345 308.503 0.0790474 339.409 0.0790474L399.918 0.0664062C401.897 0.0664062 403.795 0.852545 405.194 2.25189L462.042 59.0745C464.897 61.9325 468.77 63.5378 472.808 63.5367L522.435 63.5037C526.556 63.5037 529.896 66.8444 529.896 70.9654V246.316C529.896 250.437 526.556 253.778 522.435 253.778H473.935C469.814 253.778 466.473 250.437 466.473 246.316V227.662C466.473 223.541 463.133 220.2 459.012 220.2H413.384C411.405 220.2 409.508 219.414 408.108 218.014L350.331 160.408C349.052 159.133 346.871 160.039 346.871 161.846V246.316C346.871 250.437 343.53 253.778 339.409 253.778ZM466.473 63.5037H323.659C307.632 63.5037 294.64 76.4961 294.64 92.523C294.64 100.219 297.697 107.601 303.139 113.043L342.412 152.362C345.267 155.22 349.14 156.826 353.178 156.825L459.012 156.775C463.133 156.775 466.473 153.434 466.473 149.313V63.5037Z" fill="white"/>
<g clip-path="url(#clip0_3702_26)">
<path d="M737.935 253.793V190.043L726.538 189.994C724.561 189.994 722.664 190.78 721.266 192.179L679.758 233.728C674.32 239.17 666.946 242.228 659.257 242.228C643.244 242.228 630.264 229.235 630.264 213.207V65.1826C630.264 64.0616 631.171 63.1529 632.291 63.1529L805.454 63.1403C809.571 63.1403 812.909 59.7994 812.909 55.6783L812.909 7.1793C812.909 3.05814 809.571 -0.28272 805.454 -0.28272L696.718 -0.286621C694.741 -0.286621 692.845 0.499583 691.447 1.89899L634.691 58.7236C631.839 61.5817 627.969 63.187 623.935 63.1859L574.352 63.1403C570.235 63.1403 566.897 66.4811 566.897 70.6022V197.456C566.897 228.364 591.93 253.421 622.809 253.421L737.935 253.793Z" fill="white"/>
<path d="M805.681 190.333L737.935 190.043V253.793H820.609C851.527 253.793 876.59 228.724 876.59 197.799V166.068C876.59 161.945 873.248 158.602 869.126 158.602L819.482 158.648C815.443 158.649 811.568 157.043 808.713 154.183L751.887 97.3284C750.487 95.9282 748.589 95.1416 746.609 95.1416H672.166C668.044 95.1416 664.702 98.4843 664.702 102.608V151.136C664.702 155.26 668.044 158.602 672.166 158.602L811.116 158.615C812.237 158.615 813.145 159.524 813.145 160.646V182.867C813.145 186.99 809.803 190.333 805.681 190.333Z" fill="white"/>
</g>
<path d="M15.6756 367.55V320.1H20.6156V367.55H15.6756ZM19.3156 367.55V363.065H41.6106V367.55H19.3156ZM51.4297 367.55V333.165H56.2397V367.55H51.4297ZM45.9047 337.065V333.165H56.2397V337.065H45.9047ZM52.4697 326.795C51.2997 326.795 50.4114 326.492 49.8047 325.885C49.2414 325.235 48.9597 324.434 48.9597 323.48C48.9597 322.527 49.2414 321.747 49.8047 321.14C50.4114 320.49 51.2997 320.165 52.4697 320.165C53.6397 320.165 54.5064 320.49 55.0697 321.14C55.633 321.747 55.9147 322.527 55.9147 323.48C55.9147 324.434 55.633 325.235 55.0697 325.885C54.5064 326.492 53.6397 326.795 52.4697 326.795ZM82.1635 381.005C80.5602 381.005 78.9352 380.919 77.2885 380.745C75.6852 380.615 74.1468 380.442 72.6735 380.225V376.065C74.2335 376.282 75.8585 376.455 77.5485 376.585C79.2818 376.759 80.9068 376.845 82.4235 376.845C85.7168 376.845 88.3385 376.412 90.2885 375.545C92.2385 374.679 93.6252 373.292 94.4485 371.385C95.3152 369.522 95.7485 367.052 95.7485 363.975V357.085L97.5685 352.275C97.4819 355.569 96.7885 358.407 95.4885 360.79C94.1885 363.13 92.4335 364.929 90.2235 366.185C88.0135 367.442 85.5002 368.07 82.6835 368.07C80.2135 368.07 77.9602 367.594 75.9235 366.64C73.9302 365.687 72.2185 364.387 70.7885 362.74C69.3585 361.05 68.2535 359.144 67.4735 357.02C66.6935 354.897 66.3035 352.665 66.3035 350.325V349.415C66.3035 347.119 66.6935 344.93 67.4735 342.85C68.2535 340.727 69.3585 338.864 70.7885 337.26C72.2185 335.614 73.9518 334.335 75.9885 333.425C78.0685 332.472 80.3652 331.995 82.8785 331.995C85.9119 331.995 88.5552 332.667 90.8085 334.01C93.0619 335.354 94.8169 337.217 96.0735 339.6C97.3735 341.984 98.0669 344.779 98.1535 347.985L96.5935 347.14V333.165H100.429V363.78C100.429 367.897 99.8219 371.212 98.6085 373.725C97.3952 376.239 95.4452 378.08 92.7585 379.25C90.1152 380.42 86.5835 381.005 82.1635 381.005ZM83.5285 363.585C85.8685 363.585 87.9485 363.087 89.7685 362.09C91.6319 361.05 93.1052 359.599 94.1885 357.735C95.2718 355.872 95.8135 353.705 95.8135 351.235V348.05C95.8135 345.667 95.2502 343.587 94.1235 341.81C93.0402 340.034 91.5885 338.647 89.7685 337.65C87.9485 336.654 85.8685 336.155 83.5285 336.155C81.0152 336.155 78.8269 336.762 76.9635 337.975C75.1002 339.189 73.6702 340.835 72.6735 342.915C71.6768 344.952 71.1785 347.27 71.1785 349.87C71.1785 352.514 71.6768 354.875 72.6735 356.955C73.7135 359.035 75.1652 360.66 77.0285 361.83C78.8918 363 81.0585 363.585 83.5285 363.585ZM133.572 367.55V357.215H132.792V344.995C132.792 342.439 132.12 340.489 130.777 339.145C129.434 337.759 127.354 337.065 124.537 337.065C123.237 337.065 121.915 337.087 120.572 337.13C119.272 337.174 118.015 337.239 116.802 337.325C115.632 337.369 114.592 337.434 113.682 337.52V333.23C114.635 333.144 115.61 333.057 116.607 332.97C117.604 332.884 118.622 332.84 119.662 332.84C120.745 332.797 121.785 332.775 122.782 332.775C126.292 332.775 129.109 333.209 131.232 334.075C133.399 334.942 134.98 336.307 135.977 338.17C136.974 339.99 137.472 342.417 137.472 345.45V367.55H133.572ZM121.937 368.46C119.51 368.46 117.365 368.027 115.502 367.16C113.639 366.294 112.187 365.037 111.147 363.39C110.15 361.744 109.652 359.75 109.652 357.41C109.652 355.114 110.172 353.164 111.212 351.56C112.295 349.957 113.834 348.744 115.827 347.92C117.864 347.054 120.312 346.62 123.172 346.62H133.247V350.325H122.847C120.117 350.325 118.015 350.997 116.542 352.34C115.112 353.64 114.397 355.352 114.397 357.475C114.397 359.642 115.155 361.375 116.672 362.675C118.189 363.932 120.247 364.56 122.847 364.56C124.45 364.56 125.989 364.279 127.462 363.715C128.935 363.109 130.17 362.112 131.167 360.725C132.164 359.295 132.705 357.345 132.792 354.875L134.222 356.89C134.049 359.447 133.442 361.592 132.402 363.325C131.362 365.015 129.954 366.294 128.177 367.16C126.4 368.027 124.32 368.46 121.937 368.46ZM160.66 367.55L178.145 320.1H186.985L205.055 367.55H199.985L183.15 323.22L185.815 324.585H178.99L181.785 323.22L165.6 367.55H160.66ZM170.02 352.47L171.645 347.985H193.68L195.37 352.47H170.02ZM227.684 368.655C224.78 368.655 222.245 368.157 220.079 367.16C217.955 366.12 216.179 364.734 214.749 363C213.319 361.224 212.235 359.274 211.499 357.15C210.805 355.027 210.459 352.882 210.459 350.715V349.805C210.459 347.595 210.805 345.45 211.499 343.37C212.235 341.247 213.319 339.34 214.749 337.65C216.179 335.917 217.955 334.552 220.079 333.555C222.245 332.515 224.737 331.995 227.554 331.995C230.414 331.995 232.949 332.515 235.159 333.555C237.412 334.595 239.232 336.069 240.619 337.975C242.005 339.882 242.829 342.135 243.089 344.735H238.409C238.019 342.352 236.892 340.38 235.029 338.82C233.209 337.217 230.717 336.415 227.554 336.415C224.824 336.415 222.549 337.044 220.729 338.3C218.952 339.514 217.609 341.182 216.699 343.305C215.789 345.385 215.334 347.704 215.334 350.26C215.334 352.774 215.789 355.114 216.699 357.28C217.609 359.404 218.974 361.115 220.794 362.415C222.614 363.672 224.91 364.3 227.684 364.3C229.807 364.3 231.649 363.932 233.209 363.195C234.812 362.415 236.09 361.375 237.044 360.075C238.04 358.775 238.625 357.345 238.799 355.785H243.479C243.305 358.385 242.482 360.66 241.009 362.61C239.579 364.517 237.715 366.012 235.419 367.095C233.122 368.135 230.544 368.655 227.684 368.655ZM273.347 367.55V357.215H272.567V344.995C272.567 342.439 271.896 340.489 270.552 339.145C269.209 337.759 267.129 337.065 264.312 337.065C263.012 337.065 261.691 337.087 260.347 337.13C259.047 337.174 257.791 337.239 256.577 337.325C255.407 337.369 254.367 337.434 253.457 337.52V333.23C254.411 333.144 255.386 333.057 256.382 332.97C257.379 332.884 258.397 332.84 259.437 332.84C260.521 332.797 261.561 332.775 262.557 332.775C266.067 332.775 268.884 333.209 271.007 334.075C273.174 334.942 274.756 336.307 275.752 338.17C276.749 339.99 277.247 342.417 277.247 345.45V367.55H273.347ZM261.712 368.46C259.286 368.46 257.141 368.027 255.277 367.16C253.414 366.294 251.962 365.037 250.922 363.39C249.926 361.744 249.427 359.75 249.427 357.41C249.427 355.114 249.947 353.164 250.987 351.56C252.071 349.957 253.609 348.744 255.602 347.92C257.639 347.054 260.087 346.62 262.947 346.62H273.022V350.325H262.622C259.892 350.325 257.791 350.997 256.317 352.34C254.887 353.64 254.172 355.352 254.172 357.475C254.172 359.642 254.931 361.375 256.447 362.675C257.964 363.932 260.022 364.56 262.622 364.56C264.226 364.56 265.764 364.279 267.237 363.715C268.711 363.109 269.946 362.112 270.942 360.725C271.939 359.295 272.481 357.345 272.567 354.875L273.997 356.89C273.824 359.447 273.217 361.592 272.177 363.325C271.137 365.015 269.729 366.294 267.952 367.16C266.176 368.027 264.096 368.46 261.712 368.46ZM303.529 368.655C301.016 368.655 298.719 368.2 296.639 367.29C294.602 366.337 292.826 365.037 291.309 363.39C289.836 361.7 288.687 359.794 287.864 357.67C287.084 355.504 286.694 353.207 286.694 350.78V349.87C286.694 347.53 287.084 345.299 287.864 343.175C288.644 341.009 289.749 339.102 291.179 337.455C292.652 335.765 294.407 334.444 296.444 333.49C298.524 332.494 300.842 331.995 303.399 331.995C306.302 331.995 308.859 332.624 311.069 333.88C313.279 335.137 315.056 336.957 316.399 339.34C317.742 341.68 318.457 344.562 318.544 347.985L316.399 343.955V320.1H321.274V367.55H317.374V352.275H318.934C318.847 355.872 318.089 358.905 316.659 361.375C315.272 363.802 313.431 365.622 311.134 366.835C308.881 368.049 306.346 368.655 303.529 368.655ZM304.179 364.365C306.519 364.365 308.621 363.845 310.484 362.805C312.391 361.765 313.886 360.292 314.969 358.385C316.052 356.435 316.594 354.204 316.594 351.69V348.57C316.594 346.144 316.052 344.02 314.969 342.2C313.886 340.337 312.391 338.885 310.484 337.845C308.621 336.805 306.497 336.285 304.114 336.285C301.557 336.285 299.326 336.914 297.419 338.17C295.556 339.384 294.104 341.052 293.064 343.175C292.067 345.299 291.569 347.682 291.569 350.325C291.569 353.055 292.089 355.482 293.129 357.605C294.169 359.729 295.642 361.397 297.549 362.61C299.456 363.78 301.666 364.365 304.179 364.365ZM348.223 368.655C345.276 368.655 342.719 368.157 340.553 367.16C338.386 366.12 336.609 364.755 335.223 363.065C333.836 361.332 332.796 359.404 332.103 357.28C331.453 355.157 331.128 352.969 331.128 350.715V349.805C331.128 347.595 331.453 345.429 332.103 343.305C332.796 341.182 333.836 339.275 335.223 337.585C336.609 335.895 338.343 334.552 340.423 333.555C342.546 332.515 345.016 331.995 347.833 331.995C351.429 331.995 354.419 332.797 356.803 334.4C359.229 336.004 361.049 338.062 362.263 340.575C363.476 343.045 364.083 345.71 364.083 348.57V351.105H333.338V347.335H360.703L359.468 349.22C359.468 346.664 359.013 344.432 358.103 342.525C357.236 340.575 355.936 339.059 354.203 337.975C352.513 336.849 350.389 336.285 347.833 336.285C345.146 336.285 342.914 336.914 341.138 338.17C339.361 339.427 338.018 341.095 337.108 343.175C336.241 345.255 335.808 347.617 335.808 350.26C335.808 352.86 336.241 355.244 337.108 357.41C338.018 359.534 339.383 361.224 341.203 362.48C343.066 363.737 345.406 364.365 348.223 364.365C351.213 364.365 353.639 363.694 355.503 362.35C357.366 360.964 358.514 359.339 358.948 357.475H363.498C363.064 359.772 362.154 361.765 360.768 363.455C359.381 365.102 357.626 366.38 355.503 367.29C353.379 368.2 350.953 368.655 348.223 368.655ZM373.467 367.55V333.1H377.367V347.595H376.587C376.587 344.432 377.02 341.702 377.887 339.405C378.797 337.109 380.14 335.332 381.917 334.075C383.694 332.775 385.947 332.125 388.677 332.125H388.872C391.602 332.125 393.855 332.754 395.632 334.01C397.409 335.267 398.73 337.044 399.597 339.34C400.464 341.637 400.897 344.389 400.897 347.595H399.337C399.337 344.432 399.77 341.702 400.637 339.405C401.547 337.109 402.89 335.332 404.667 334.075C406.487 332.775 408.762 332.125 411.492 332.125H411.687C414.417 332.125 416.67 332.754 418.447 334.01C420.267 335.267 421.61 337.044 422.477 339.34C423.387 341.637 423.842 344.389 423.842 347.595V367.55H418.967V346.49C418.967 343.457 418.23 341.052 416.757 339.275C415.284 337.499 413.16 336.61 410.387 336.61C407.527 336.61 405.252 337.542 403.562 339.405C401.915 341.225 401.092 343.695 401.092 346.815V367.55H396.217V346.49C396.217 343.457 395.48 341.052 394.007 339.275C392.534 337.499 390.41 336.61 387.637 336.61C384.777 336.61 382.502 337.542 380.812 339.405C379.165 341.225 378.342 343.695 378.342 346.815V367.55H373.467ZM437.812 367.55V333.165H442.622V367.55H437.812ZM432.287 337.065V333.165H442.622V337.065H432.287ZM438.852 326.795C437.682 326.795 436.793 326.492 436.187 325.885C435.623 325.235 435.342 324.434 435.342 323.48C435.342 322.527 435.623 321.747 436.187 321.14C436.793 320.49 437.682 320.165 438.852 320.165C440.022 320.165 440.888 320.49 441.452 321.14C442.015 321.747 442.297 322.527 442.297 323.48C442.297 324.434 442.015 325.235 441.452 325.885C440.888 326.492 440.022 326.795 438.852 326.795ZM469.91 368.655C467.007 368.655 464.472 368.157 462.305 367.16C460.182 366.12 458.405 364.734 456.975 363C455.545 361.224 454.462 359.274 453.725 357.15C453.032 355.027 452.685 352.882 452.685 350.715V349.805C452.685 347.595 453.032 345.45 453.725 343.37C454.462 341.247 455.545 339.34 456.975 337.65C458.405 335.917 460.182 334.552 462.305 333.555C464.472 332.515 466.964 331.995 469.78 331.995C472.64 331.995 475.175 332.515 477.385 333.555C479.639 334.595 481.459 336.069 482.845 337.975C484.232 339.882 485.055 342.135 485.315 344.735H480.635C480.245 342.352 479.119 340.38 477.255 338.82C475.435 337.217 472.944 336.415 469.78 336.415C467.05 336.415 464.775 337.044 462.955 338.3C461.179 339.514 459.835 341.182 458.925 343.305C458.015 345.385 457.56 347.704 457.56 350.26C457.56 352.774 458.015 355.114 458.925 357.28C459.835 359.404 461.2 361.115 463.02 362.415C464.84 363.672 467.137 364.3 469.91 364.3C472.034 364.3 473.875 363.932 475.435 363.195C477.039 362.415 478.317 361.375 479.27 360.075C480.267 358.775 480.852 357.345 481.025 355.785H485.705C485.532 358.385 484.709 360.66 483.235 362.61C481.805 364.517 479.942 366.012 477.645 367.095C475.349 368.135 472.77 368.655 469.91 368.655ZM515.574 367.55V357.215H514.794V344.995C514.794 342.439 514.122 340.489 512.779 339.145C511.436 337.759 509.356 337.065 506.539 337.065C505.239 337.065 503.917 337.087 502.574 337.13C501.274 337.174 500.017 337.239 498.804 337.325C497.634 337.369 496.594 337.434 495.684 337.52V333.23C496.637 333.144 497.612 333.057 498.609 332.97C499.606 332.884 500.624 332.84 501.664 332.84C502.747 332.797 503.787 332.775 504.784 332.775C508.294 332.775 511.111 333.209 513.234 334.075C515.401 334.942 516.982 336.307 517.979 338.17C518.976 339.99 519.474 342.417 519.474 345.45V367.55H515.574ZM503.939 368.46C501.512 368.46 499.367 368.027 497.504 367.16C495.641 366.294 494.189 365.037 493.149 363.39C492.152 361.744 491.654 359.75 491.654 357.41C491.654 355.114 492.174 353.164 493.214 351.56C494.297 349.957 495.836 348.744 497.829 347.92C499.866 347.054 502.314 346.62 505.174 346.62H515.249V350.325H504.849C502.119 350.325 500.017 350.997 498.544 352.34C497.114 353.64 496.399 355.352 496.399 357.475C496.399 359.642 497.157 361.375 498.674 362.675C500.191 363.932 502.249 364.56 504.849 364.56C506.452 364.56 507.991 364.279 509.464 363.715C510.937 363.109 512.172 362.112 513.169 360.725C514.166 359.295 514.707 357.345 514.794 354.875L516.224 356.89C516.051 359.447 515.444 361.592 514.404 363.325C513.364 365.015 511.956 366.294 510.179 367.16C508.402 368.027 506.322 368.46 503.939 368.46ZM560.927 368.655C558.413 368.655 556.117 368.2 554.037 367.29C552 366.337 550.223 365.037 548.707 363.39C547.233 361.7 546.085 359.794 545.262 357.67C544.482 355.504 544.092 353.207 544.092 350.78V349.87C544.092 347.53 544.482 345.299 545.262 343.175C546.042 341.009 547.147 339.102 548.577 337.455C550.05 335.765 551.805 334.444 553.842 333.49C555.922 332.494 558.24 331.995 560.797 331.995C563.7 331.995 566.257 332.624 568.467 333.88C570.677 335.137 572.453 336.957 573.797 339.34C575.14 341.68 575.855 344.562 575.942 347.985L573.797 343.955V320.1H578.672V367.55H574.772V352.275H576.332C576.245 355.872 575.487 358.905 574.057 361.375C572.67 363.802 570.828 365.622 568.532 366.835C566.278 368.049 563.743 368.655 560.927 368.655ZM561.577 364.365C563.917 364.365 566.018 363.845 567.882 362.805C569.788 361.765 571.283 360.292 572.367 358.385C573.45 356.435 573.992 354.204 573.992 351.69V348.57C573.992 346.144 573.45 344.02 572.367 342.2C571.283 340.337 569.788 338.885 567.882 337.845C566.018 336.805 563.895 336.285 561.512 336.285C558.955 336.285 556.723 336.914 554.817 338.17C552.953 339.384 551.502 341.052 550.462 343.175C549.465 345.299 548.967 347.682 548.967 350.325C548.967 353.055 549.487 355.482 550.527 357.605C551.567 359.729 553.04 361.397 554.947 362.61C556.853 363.78 559.063 364.365 561.577 364.365ZM605.62 368.655C602.674 368.655 600.117 368.157 597.95 367.16C595.784 366.12 594.007 364.755 592.62 363.065C591.234 361.332 590.194 359.404 589.5 357.28C588.85 355.157 588.525 352.969 588.525 350.715V349.805C588.525 347.595 588.85 345.429 589.5 343.305C590.194 341.182 591.234 339.275 592.62 337.585C594.007 335.895 595.74 334.552 597.82 333.555C599.944 332.515 602.414 331.995 605.23 331.995C608.827 331.995 611.817 332.797 614.2 334.4C616.627 336.004 618.447 338.062 619.66 340.575C620.874 343.045 621.48 345.71 621.48 348.57V351.105H590.735V347.335H618.1L616.865 349.22C616.865 346.664 616.41 344.432 615.5 342.525C614.634 340.575 613.334 339.059 611.6 337.975C609.91 336.849 607.787 336.285 605.23 336.285C602.544 336.285 600.312 336.914 598.535 338.17C596.759 339.427 595.415 341.095 594.505 343.175C593.639 345.255 593.205 347.617 593.205 350.26C593.205 352.86 593.639 355.244 594.505 357.41C595.415 359.534 596.78 361.224 598.6 362.48C600.464 363.737 602.804 364.365 605.62 364.365C608.61 364.365 611.037 363.694 612.9 362.35C614.764 360.964 615.912 359.339 616.345 357.475H620.895C620.462 359.772 619.552 361.765 618.165 363.455C616.779 365.102 615.024 366.38 612.9 367.29C610.777 368.2 608.35 368.655 605.62 368.655ZM667.875 368.655C663.975 368.655 660.509 368.005 657.475 366.705C654.485 365.405 651.972 363.629 649.935 361.375C647.899 359.079 646.339 356.457 645.255 353.51C644.215 350.52 643.695 347.379 643.695 344.085V342.915C643.695 339.882 644.194 336.935 645.19 334.075C646.23 331.215 647.725 328.637 649.675 326.34C651.625 324.044 654.052 322.224 656.955 320.88C659.859 319.537 663.152 318.865 666.835 318.865C670.692 318.865 674.115 319.602 677.105 321.075C680.095 322.505 682.5 324.52 684.32 327.12C686.184 329.72 687.267 332.732 687.57 336.155H682.565C682.219 333.382 681.287 331.042 679.77 329.135C678.297 327.229 676.434 325.799 674.18 324.845C671.927 323.892 669.479 323.415 666.835 323.415C664.062 323.415 661.549 323.914 659.295 324.91C657.042 325.907 655.135 327.315 653.575 329.135C652.015 330.955 650.802 333.1 649.935 335.57C649.112 337.997 648.7 340.662 648.7 343.565C648.7 346.642 649.134 349.459 650 352.015C650.867 354.529 652.124 356.695 653.77 358.515C655.417 360.335 657.41 361.744 659.75 362.74C662.134 363.737 664.842 364.235 667.875 364.235C671.602 364.235 674.874 363.52 677.69 362.09C680.55 360.617 682.76 358.689 684.32 356.305L682.37 362.415V348.375H687.05V360.205C685.014 362.849 682.37 364.929 679.12 366.445C675.87 367.919 672.122 368.655 667.875 368.655ZM666.12 349.415V345.255H691.275V349.415H666.12ZM720.984 367.55V357.215H720.204V344.995C720.204 342.439 719.532 340.489 718.189 339.145C716.846 337.759 714.766 337.065 711.949 337.065C710.649 337.065 709.327 337.087 707.984 337.13C706.684 337.174 705.427 337.239 704.214 337.325C703.044 337.369 702.004 337.434 701.094 337.52V333.23C702.047 333.144 703.022 333.057 704.019 332.97C705.016 332.884 706.034 332.84 707.074 332.84C708.157 332.797 709.197 332.775 710.194 332.775C713.704 332.775 716.521 333.209 718.644 334.075C720.811 334.942 722.392 336.307 723.389 338.17C724.386 339.99 724.884 342.417 724.884 345.45V367.55H720.984ZM709.349 368.46C706.922 368.46 704.777 368.027 702.914 367.16C701.051 366.294 699.599 365.037 698.559 363.39C697.562 361.744 697.064 359.75 697.064 357.41C697.064 355.114 697.584 353.164 698.624 351.56C699.707 349.957 701.246 348.744 703.239 347.92C705.276 347.054 707.724 346.62 710.584 346.62H720.659V350.325H710.259C707.529 350.325 705.427 350.997 703.954 352.34C702.524 353.64 701.809 355.352 701.809 357.475C701.809 359.642 702.567 361.375 704.084 362.675C705.601 363.932 707.659 364.56 710.259 364.56C711.862 364.56 713.401 364.279 714.874 363.715C716.347 363.109 717.582 362.112 718.579 360.725C719.576 359.295 720.117 357.345 720.204 354.875L721.634 356.89C721.461 359.447 720.854 361.592 719.814 363.325C718.774 365.015 717.366 366.294 715.589 367.16C713.812 368.027 711.732 368.46 709.349 368.46ZM737.061 367.55V333.1H740.961V347.595H740.181C740.181 344.432 740.614 341.702 741.481 339.405C742.391 337.109 743.734 335.332 745.511 334.075C747.288 332.775 749.541 332.125 752.271 332.125H752.466C755.196 332.125 757.449 332.754 759.226 334.01C761.003 335.267 762.324 337.044 763.191 339.34C764.058 341.637 764.491 344.389 764.491 347.595H762.931C762.931 344.432 763.364 341.702 764.231 339.405C765.141 337.109 766.484 335.332 768.261 334.075C770.081 332.775 772.356 332.125 775.086 332.125H775.281C778.011 332.125 780.264 332.754 782.041 334.01C783.861 335.267 785.204 337.044 786.071 339.34C786.981 341.637 787.436 344.389 787.436 347.595V367.55H782.561V346.49C782.561 343.457 781.824 341.052 780.351 339.275C778.878 337.499 776.754 336.61 773.981 336.61C771.121 336.61 768.846 337.542 767.156 339.405C765.509 341.225 764.686 343.695 764.686 346.815V367.55H759.811V346.49C759.811 343.457 759.074 341.052 757.601 339.275C756.128 337.499 754.004 336.61 751.231 336.61C748.371 336.61 746.096 337.542 744.406 339.405C742.759 341.225 741.936 343.695 741.936 346.815V367.55H737.061ZM813.95 368.655C811.004 368.655 808.447 368.157 806.28 367.16C804.114 366.12 802.337 364.755 800.95 363.065C799.564 361.332 798.524 359.404 797.83 357.28C797.18 355.157 796.855 352.969 796.855 350.715V349.805C796.855 347.595 797.18 345.429 797.83 343.305C798.524 341.182 799.564 339.275 800.95 337.585C802.337 335.895 804.07 334.552 806.15 333.555C808.274 332.515 810.744 331.995 813.56 331.995C817.157 331.995 820.147 332.797 822.53 334.4C824.957 336.004 826.777 338.062 827.99 340.575C829.204 343.045 829.81 345.71 829.81 348.57V351.105H799.065V347.335H826.43L825.195 349.22C825.195 346.664 824.74 344.432 823.83 342.525C822.964 340.575 821.664 339.059 819.93 337.975C818.24 336.849 816.117 336.285 813.56 336.285C810.874 336.285 808.642 336.914 806.865 338.17C805.089 339.427 803.745 341.095 802.835 343.175C801.969 345.255 801.535 347.617 801.535 350.26C801.535 352.86 801.969 355.244 802.835 357.41C803.745 359.534 805.11 361.224 806.93 362.48C808.794 363.737 811.134 364.365 813.95 364.365C816.94 364.365 819.367 363.694 821.23 362.35C823.094 360.964 824.242 359.339 824.675 357.475H829.225C828.792 359.772 827.882 361.765 826.495 363.455C825.109 365.102 823.354 366.38 821.23 367.29C819.107 368.2 816.68 368.655 813.95 368.655ZM850.05 368.525C845.63 368.525 842.228 367.572 839.845 365.665C837.461 363.715 836.248 361.115 836.205 357.865H840.755C840.841 359.512 841.578 361.007 842.965 362.35C844.395 363.694 846.756 364.365 850.05 364.365C853.126 364.365 855.423 363.737 856.94 362.48C858.5 361.18 859.28 359.62 859.28 357.8C859.28 356.11 858.63 354.81 857.33 353.9C856.073 352.947 854.231 352.34 851.805 352.08L847.905 351.69C844.785 351.344 842.25 350.39 840.3 348.83C838.393 347.227 837.44 345.039 837.44 342.265C837.44 340.229 837.96 338.452 839 336.935C840.04 335.419 841.491 334.249 843.355 333.425C845.261 332.559 847.493 332.125 850.05 332.125C853.733 332.125 856.723 332.992 859.02 334.725C861.36 336.459 862.551 338.929 862.595 342.135H858.045C858.001 340.489 857.308 339.102 855.965 337.975C854.621 336.849 852.65 336.285 850.05 336.285C847.363 336.285 845.348 336.87 844.005 338.04C842.705 339.21 842.055 340.64 842.055 342.33C842.055 343.76 842.553 344.952 843.55 345.905C844.546 346.815 846.106 347.379 848.23 347.595L852.13 347.985C855.596 348.375 858.413 349.372 860.58 350.975C862.79 352.579 863.895 354.875 863.895 357.865C863.895 359.902 863.31 361.744 862.14 363.39C861.013 364.994 859.41 366.25 857.33 367.16C855.25 368.07 852.823 368.525 850.05 368.525Z" fill="white"/>
<defs>
<clipPath id="clip0_3702_26">
<rect width="309.634" height="253.711" fill="white" transform="translate(566.896)"/>
</clipPath>
</defs>
</svg>
